<svg width="29" height="28" viewBox="0 0 29 28" fill="none" xmlns="http://www.w3.org/2000/svg">
<g filter="url(#filter0_d_1_655)">
<circle cx="14" cy="14" r="13" fill="white"/>
</g>
<path d="M22.0474 13.359C21.9919 13.6571 21.953 13.959 21.8778 14.2523C21.6791 15.0284 21.2801 15.7144 20.782 16.3495C20.0131 17.3296 19.0782 18.1579 18.1134 18.9567C16.9759 19.8983 15.8325 20.8331 14.6894 21.7687C14.2507 22.1278 13.7789 22.1435 13.3559 21.7945C11.869 20.5678 10.3781 19.3446 8.90887 18.0985C8.15379 17.4581 7.47504 16.7441 6.92221 15.9311C5.93065 14.4735 5.6619 12.9125 6.28989 11.2715C6.85807 9.78742 7.96138 8.81635 9.61752 8.51221C11.3343 8.19724 12.7169 8.78235 13.8151 10.0404C13.8686 10.1016 13.9182 10.1659 13.9701 10.2283C13.9764 10.2358 13.9859 10.241 14.0115 10.2612C14.0709 10.1891 14.1295 10.1158 14.1905 10.0445C14.8271 9.30319 15.6031 8.7603 16.5958 8.53687C18.3267 8.1468 20.1642 8.83428 21.1637 10.2328C21.6571 10.9236 21.9306 11.6858 22.0187 12.5127C22.0242 12.5661 22.0372 12.6188 22.047 12.6719C22.0474 12.9009 22.0474 13.1299 22.0474 13.359ZM14.0004 21.1421C14.0398 21.1122 14.0689 21.0921 14.0961 21.0696C15.2733 20.1038 16.4545 19.1421 17.6259 18.1699C18.475 17.4656 19.2943 16.731 19.9793 15.8739C20.518 15.1999 20.937 14.4709 21.0543 13.6168C21.2129 12.4589 20.9669 11.3978 20.176 10.4809C19.0188 9.13917 16.6592 8.78944 15.1608 10.3606C14.9334 10.5989 14.741 10.868 14.5411 11.1291C14.436 11.2663 14.3219 11.3821 14.1413 11.4206C13.8674 11.4789 13.6443 11.3854 13.4681 11.1224C13.2135 10.7424 12.9172 10.3991 12.5643 10.0957C11.1954 8.91835 9.05878 9.12646 7.91573 10.3987C6.77072 11.6731 6.62631 13.1311 7.2724 14.6644C7.59426 15.4282 8.13883 16.0577 8.72197 16.6548C9.57856 17.5325 10.5355 18.3081 11.4873 19.0886C12.3199 19.7709 13.1545 20.4509 14.0004 21.1421Z" fill="#00995D"/>
<defs>
<filter id="filter0_d_1_655" x="0.5" y="0" width="28" height="28" filterUnits="userSpaceOnUse" color-interpolation-filters="sRGB">
<feFlood flood-opacity="0" result="BackgroundImageFix"/>
<feColorMatrix in="SourceAlpha" type="matrix" values="0 0 0 0 0 0 0 0 0 0 0 0 0 0 0 0 0 0 127 0" result="hardAlpha"/>
<feOffset dx="0.5"/>
<feGaussianBlur stdDeviation="0.5"/>
<feComposite in2="hardAlpha" operator="out"/>
<feColorMatrix type="matrix" values="0 0 0 0 0 0 0 0 0 0 0 0 0 0 0 0 0 0 0.1 0"/>
<feBlend mode="normal" in2="BackgroundImageFix" result="effect1_dropShadow_1_655"/>
<feBlend mode="normal" in="SourceGraphic" in2="effect1_dropShadow_1_655" result="shape"/>
</filter>
</defs>
</svg>
