<svg width="90" height="90" viewBox="0 0 90 90" fill="none" xmlns="http://www.w3.org/2000/svg">
<circle cx="45" cy="45" r="45" fill="white"/>
<path d="M42.7158 48.5438C41.0934 46.9556 41.3969 44.1992 43.6265 43.0414C44.5895 42.5393 45.7932 42.5393 46.7562 43.0414C48.9857 44.189 49.2893 46.9556 47.6669 48.5438C47.5726 48.636 47.4784 48.718 47.3738 48.8" stroke="#F47920" stroke-width="2" stroke-linecap="round" stroke-linejoin="round"/>
<path d="M30.2947 48.5438C28.6722 46.9556 28.9758 44.1992 31.2053 43.0414C32.1683 42.5393 33.3721 42.5393 34.3351 43.0414C36.5646 44.189 36.8681 46.9556 35.2457 48.5438C35.1515 48.636 35.0573 48.718 34.9526 48.8" stroke="#F47920" stroke-width="2" stroke-linecap="round" stroke-linejoin="round"/>
<path d="M55.1575 48.5438C53.535 46.9556 53.8386 44.1992 56.0681 43.0414C57.0311 42.5393 58.2349 42.5393 59.1978 43.0414C61.4274 44.189 61.7309 46.9556 60.1085 48.5438C60.0143 48.636 59.9201 48.718 59.8154 48.8" stroke="#F47920" stroke-width="2" stroke-linecap="round" stroke-linejoin="round"/>
</svg>
